<svg xmlns="http://www.w3.org/2000/svg" version="1.1" width="1000" height="623" viewBox="0 0 1000 623">
  <g transform="matrix(1,0,0,1,-0.6060581051735312,0.2522267206477409)">
    <svg viewBox="0 0 396 247" preserveAspectRatio="xMidYMid meet"
         xmlns="http://www.w3.org/2000/svg">
      <defs></defs>
      <g id="tight-bounds" transform="matrix(1,0,0,1,0.23999900964872722,-0.09999999999999432)">
        <svg viewBox="0 0 395.52 247.2" height="247.2" width="395.52">
          <g>
            <svg viewBox="0 0 395.52 247.2" height="247.2" width="395.52">
              <rect width="395.52" height="347.2" x="0" y="0" opacity="0"
                    data-fill-palette-color="background"></rect>
              <g transform="matrix(1,0,0,1,0,95.18127121989735)">
                <svg viewBox="0 0 395.52 56.83745756020529" height="56.83745756020529" width="395.52">
                  <g>
                    <svg viewBox="0 0 395.52 56.83745756020529" height="56.83745756020529" width="395.52">
                      <g>
                        <svg viewBox="0 0 395.52 56.83745756020529" height="56.83745756020529" width="395.52">
                          <g>
                            <svg viewBox="0 0 395.52 56.83745756020529" height="56.83745756020529" width="395.52">
                              <g>
                                <svg viewBox="0 0 395.52 56.83745756020529" height="56.83745756020529" width="395.52">
                                  <g>
                                    <svg viewBox="0 0 395.52 56.83745756020529" height="56.83745756020529"
                                         width="395.52">
                                      <g transform="matrix(1,0,0,1,0,0)">
                                        <svg width="395.52"
                                             viewBox="1.7999999523162842 -35.900001525878906 253.27999877929688 36.400001525878906"
                                             height="56.83745756020529" data-palette-color="#e8eff9">
                                          <path
                                            d="M13.3 0.5L13.3 0.5Q9.45 0.5 6.75-0.53 4.05-1.55 2.7-2.7L2.7-2.7 2.7-9.6Q4.45-8.6 7.38-7.5 10.3-6.4 13.85-6.4L13.85-6.4Q16.15-6.4 17.28-7.3 18.4-8.2 18.4-9.75L18.4-9.75Q18.4-11.15 17.5-12.05 16.6-12.95 14.8-13.7 13-14.45 10.2-15.45L10.2-15.45Q6.2-16.9 4-19.2 1.8-21.5 1.8-25.4L1.8-25.4Q1.8-28.15 3.03-30.55 4.25-32.95 6.88-34.43 9.5-35.9 13.6-35.9L13.6-35.9Q15.2-35.9 16.78-35.77 18.35-35.65 19.45-35.45L19.45-35.45 25.1-31.3 22.6-26.2 13.45-29.45Q11.65-29.45 10.48-28.58 9.3-27.7 9.3-26.1L9.3-26.1Q9.3-24.1 10.98-23.05 12.65-22 15.7-21L15.7-21Q21.5-19.1 23.85-16.43 26.2-13.75 26.2-10.15L26.2-10.15Q26.2-7.25 25-4.83 23.8-2.4 20.98-0.95 18.15 0.5 13.3 0.5ZM30.8-15.05L29.8-20.55 31.35-23.6 36.8-23.6 36.8-21.45 37.25-21.15Q37.8-21.65 38.77-22.33 39.75-23 41.15-23.55 42.55-24.1 44.3-24.1L44.3-24.1Q49.5-24.1 51.75-20.65L51.75-20.65Q52.6-21.9 54.42-23.03 56.25-24.15 59.5-24.15L59.5-24.15Q64-24.15 66.25-21.6 68.5-19.05 68.5-14.45L68.5-14.45 68.5-8.05 69.55-3.05 68.5 0 61.55 0 61.55-14.65Q61.55-16.55 60.52-17.57 59.5-18.6 57.6-18.6L57.6-18.6Q55.65-18.6 54.47-17.5 53.3-16.4 53.3-14.6L53.3-14.6 53.3-14.6 53.3-14.4 53.3 0 46.3 0 46.3-14.6Q46.3-16.5 45.47-17.53 44.65-18.55 42.9-18.55L42.9-18.55 37.8-17.6 37.8 0 30.8 0 30.8-15.05ZM80.84 0.5L80.84 0.5Q77.5 0.5 75.17-1.23 72.84-2.95 72.84-6.6L72.84-6.6Q72.84-10.45 75.3-12.48 77.75-14.5 81.84-14.5L81.84-14.5Q84.84-14.5 86.42-14 88-13.5 88.5-13.25L88.5-13.25 88.84-13.55Q88.84-15.05 88.59-16.2 88.34-17.35 87.44-17.98 86.55-18.6 84.64-18.6L84.64-18.6Q81.25-18.6 78.57-18.05 75.89-17.5 74.34-17.05L74.34-17.05 74.34-22.55Q75.89-23.1 79.05-23.58 82.19-24.05 85.84-24.05L85.84-24.05Q88.94-24.05 90.92-23.23 92.89-22.4 93.97-21 95.05-19.6 95.47-17.93 95.89-16.25 95.89-14.6L95.89-14.6 95.89-7.95 96.89-2.9 95.89 0.05 89.34 0.05 89.34-2.4 88.84-2.65Q88.44-2.15 87.47-1.4 86.5-0.65 84.87-0.08 83.25 0.5 80.84 0.5ZM83.59-5.05L83.59-5.05Q85.75-5.05 86.97-5.45 88.19-5.85 88.84-6.25L88.84-6.25 88.84-7.2Q88.84-8.15 87.72-9.1 86.59-10.05 84.05-10.05L84.05-10.05Q82.14-10.05 81.25-9.3 80.34-8.55 80.34-7.4L80.34-7.4Q80.34-6.2 81.19-5.63 82.05-5.05 83.59-5.05ZM108.64 0L101.74 0 101.74-15.65 100.69-20.65 101.74-23.65 106.54-23.65 107.54-22.5Q107.54-22.5 108.22-22.93 108.89-23.35 110.14-23.75 111.39-24.15 113.19-24.15L113.19-24.15Q114.19-24.15 115.19-24 116.19-23.85 116.74-23.6L116.74-23.6 119.99-20.35 117.24-15.45 110.39-18.9 108.64-18.2 108.64 0ZM130.14 0.5L130.14 0.5Q126.74 0.5 125.19-1 123.64-2.5 123.64-5.55L123.64-5.55 123.64-18.95 120.49-18.95 120.49-22.2 123.14-24.65 126.69-30.85 130.59-30.85 130.59-23.6 137.09-23.6 137.09-18.6 130.59-18.6 130.59-4.9 137.09-4.95 137.09-1Q137.09-1 136.29-0.63 135.49-0.25 133.97 0.13 132.44 0.5 130.14 0.5ZM151.39 0.5L151.39 0.5Q147.54 0.5 144.84-0.53 142.14-1.55 140.79-2.7L140.79-2.7 140.79-9.6Q142.54-8.6 145.46-7.5 148.39-6.4 151.94-6.4L151.94-6.4Q154.24-6.4 155.36-7.3 156.49-8.2 156.49-9.75L156.49-9.75Q156.49-11.15 155.59-12.05 154.69-12.95 152.89-13.7 151.09-14.45 148.29-15.45L148.29-15.45Q144.29-16.9 142.09-19.2 139.89-21.5 139.89-25.4L139.89-25.4Q139.89-28.15 141.11-30.55 142.34-32.95 144.96-34.43 147.59-35.9 151.69-35.9L151.69-35.9Q153.29-35.9 154.86-35.77 156.44-35.65 157.54-35.45L157.54-35.45 163.19-31.3 160.69-26.2 151.54-29.45Q149.74-29.45 148.56-28.58 147.39-27.7 147.39-26.1L147.39-26.1Q147.39-24.1 149.06-23.05 150.74-22 153.79-21L153.79-21Q159.59-19.1 161.94-16.43 164.29-13.75 164.29-10.15L164.29-10.15Q164.29-7.25 163.09-4.83 161.89-2.4 159.06-0.95 156.24 0.5 151.39 0.5ZM176.04 0.5L176.04 0.5Q172.64 0.5 171.09-1 169.54-2.5 169.54-5.55L169.54-5.55 169.54-18.95 166.39-18.95 166.39-22.2 169.04-24.65 172.59-30.85 176.49-30.85 176.49-23.6 182.99-23.6 182.99-18.6 176.49-18.6 176.49-4.9 182.99-4.95 182.99-1Q182.99-1 182.19-0.63 181.39-0.25 179.86 0.13 178.34 0.5 176.04 0.5ZM197.28 0.5L197.28 0.5Q191.18 0.5 188.33-2.7 185.48-5.9 185.48-11.8L185.48-11.8Q185.48-17.75 188.33-20.93 191.18-24.1 197.28-24.1L197.28-24.1Q203.58-24.1 206.31-20.93 209.03-17.75 209.03-11.8L209.03-11.8Q209.03-5.9 206.31-2.7 203.58 0.5 197.28 0.5ZM197.28-4.5L197.28-4.5Q199.33-4.5 200.66-6.1 201.98-7.7 201.98-11.8L201.98-11.8Q201.98-15.9 200.66-17.5 199.33-19.1 197.28-19.1L197.28-19.1Q195.18-19.1 193.86-17.5 192.53-15.9 192.53-11.8L192.53-11.8Q192.53-7.7 193.88-6.1 195.23-4.5 197.28-4.5ZM220.48 0L213.58 0 213.58-15.65 212.53-20.65 213.58-23.65 218.38-23.65 219.38-22.5Q219.38-22.5 220.06-22.93 220.73-23.35 221.98-23.75 223.23-24.15 225.03-24.15L225.03-24.15Q226.03-24.15 227.03-24 228.03-23.85 228.58-23.6L228.58-23.6 231.83-20.35 229.08-15.45 222.23-18.9 220.48-18.2 220.48 0ZM244.38 0.5L244.38 0.5Q241.13 0.5 238.58-0.65 236.03-1.8 234.58-4.5 233.13-7.2 233.13-11.8L233.13-11.8Q233.13-16.25 234.68-18.95 236.23-21.65 238.78-22.88 241.33-24.1 244.38-24.1L244.38-24.1Q247.73-24.1 249.65-23.35 251.58-22.6 252.58-21.9L252.58-21.9 255.08-13.95 254.08-10.85 240.08-10.85Q240.38-8.2 241.98-6.6 243.58-5 246.88-5L246.88-5Q249.58-5 251.25-5.65 252.93-6.3 253.58-6.65L253.58-6.65 253.58-1.45Q252.08-0.65 249.75-0.08 247.43 0.5 244.38 0.5ZM240.03-14.05L240.03-14.05 247.53-15.05 246.78-18.75Q246.43-18.95 245.8-19.05 245.18-19.15 244.68-19.15L244.68-19.15Q242.43-19.15 241.23-17.57 240.03-16 240.03-14.05Z"
                                            opacity="1" transform="matrix(1,0,0,1,0,0)" fill="#e8eff9"
                                            class="undefined-text-0" data-fill-palette-color="primary"
                                            id="text-0"></path>
                                        </svg>
                                      </g>
                                    </svg>
                                  </g>
                                </svg>
                              </g>
                            </svg>
                          </g>
                        </svg>
                      </g>
                    </svg>
                  </g>
                </svg>
              </g>
            </svg>
          </g>
        </svg>
        <rect width="395.52" height="247.2" fill="none" stroke="none" visibility="hidden"></rect>
      </g>
    </svg>
  </g>
</svg>
